<?xml version="1.0" encoding="utf-8"?>
<!-- Generator: Adobe Illustrator 27.2.0, SVG Export Plug-In . SVG Version: 6.00 Build 0)  -->
<svg version="1.1" id="Capa_1" xmlns="http://www.w3.org/2000/svg" xmlns:xlink="http://www.w3.org/1999/xlink" x="0px" y="0px"
	 viewBox="0 0 55.2 22.9" style="enable-background:new 0 0 55.2 22.9;" xml:space="preserve">
<style type="text/css">
	.st0{fill:#DDE6ED;}
</style>
<g>
	<path class="st0" d="M1.2,1h8.6v1H8.2C7.6,2,7.3,2.1,7.1,2.3C6.9,2.5,6.8,3,6.8,3.7v6.2H16V3.7c0-0.8-0.1-1.3-0.2-1.4
		c0-0.2-0.4-0.3-1-0.3h-1.5V1h8.6v1h-1.6c-0.4,0-0.7,0.1-0.8,0.2c-0.2,0.1-0.3,0.3-0.4,0.5S19,3.3,19,3.9v14.5
		c0,0.7,0.1,1.1,0.2,1.3c0.2,0.3,0.7,0.5,1.3,0.5h1.4v1h-8.6v-1h1.5c0.6,0,1-0.2,1.2-0.5c0.1-0.2,0.2-0.6,0.2-1.4v-7H7v7.1
		c0,0.7,0.1,1.1,0.2,1.3c0.2,0.3,0.6,0.5,1.2,0.5h1.4v1H1.2v-1h1.7c0.3,0,0.5-0.1,0.7-0.2s0.3-0.3,0.4-0.5c0-0.1,0.1-0.5,0.1-1.2
		V3.7c0-0.8-0.1-1.2-0.3-1.4S3.3,2,2.7,2H1.2V1z"/>
	<path class="st0" d="M27.1,10.4c0.5,0.8,0.8,1.4,1.1,1.7c0.2,0.4,0.5,0.7,0.8,1.1c0.5-0.7,0.8-1.2,0.8-1.7c0-0.2-0.1-0.4-0.2-0.5
		c-0.2-0.1-0.4-0.2-0.6-0.2h-0.3v-0.4h3v0.4h-0.2c-0.2,0-0.4,0-0.5,0.1s-0.2,0.2-0.4,0.3c-0.1,0.1-0.2,0.4-0.4,0.7
		c-0.3,0.6-0.6,1.2-1,1.6c0.5,0.5,0.9,0.7,1.3,0.7c0.2,0,0.4-0.1,0.5-0.3s0.2-0.5,0.3-0.9h0.4c0,0.7-0.2,1.2-0.4,1.5
		s-0.7,0.5-1.1,0.5c-0.2,0-0.5-0.1-0.7-0.2c-0.2-0.1-0.5-0.4-0.9-0.7c-0.4,0.3-0.8,0.5-1.1,0.7c-0.3,0.1-0.7,0.2-1,0.2
		c-0.7,0-1.2-0.2-1.7-0.7c-0.5-0.4-0.7-1-0.7-1.6c0-0.5,0.2-0.9,0.4-1.3s0.8-0.8,1.5-1.2c-0.4-0.7-0.5-1.3-0.5-1.7
		c0-0.5,0.2-0.9,0.5-1.3c0.4-0.4,0.8-0.5,1.3-0.5c0.5,0,0.9,0.1,1.2,0.4C28.8,7.5,29,7.8,29,8.3c0,0.4-0.2,0.8-0.4,1.1
		C28.3,9.7,27.8,10.1,27.1,10.4z M26.1,10.8c-0.7,0.4-1.1,0.9-1.1,1.5c0,0.4,0.2,0.9,0.5,1.4c0.4,0.5,0.8,0.7,1.3,0.7
		c0.4,0,0.9-0.2,1.4-0.5c-0.4-0.4-0.7-0.8-0.9-1.2S26.6,11.7,26.1,10.8z M26.9,10c0.5-0.2,0.9-0.5,1.1-0.7c0.2-0.3,0.3-0.5,0.3-0.9
		c0-0.4-0.1-0.6-0.3-0.8c-0.2-0.2-0.4-0.3-0.7-0.3s-0.5,0.1-0.7,0.3c-0.2,0.2-0.3,0.4-0.3,0.7C26.3,8.8,26.5,9.3,26.9,10z"/>
	<path class="st0" d="M32.6,1.3h9.2v1h-2c-0.4,0-0.7,0.1-1,0.3s-0.2,0.5-0.2,0.8v9.4l7.6-8.1c0.4-0.5,0.7-0.9,0.7-1.3
		c0-0.3-0.2-0.6-0.5-0.8c-0.3-0.2-0.8-0.3-1.5-0.3h-0.6v-1h8.3v1H52c-0.6,0-1.2,0.2-1.8,0.5s-1.3,0.8-1.8,1.4l-4.7,4.9l6.7,9.9
		c0.4,0.6,0.8,1,1.2,1.2s0.9,0.3,1.4,0.3h0.7v1h-9.1v-1h1c0.8,0,1.3-0.1,1.5-0.2s0.4-0.3,0.4-0.5s-0.1-0.3-0.2-0.5l-5.6-8.2
		l-3.1,3.4v5c0,0.3,0.1,0.5,0.3,0.7c0.3,0.2,0.6,0.3,1,0.3h2v1h-9.3v-1h1.8c0.5,0,0.8-0.1,1-0.3s0.3-0.4,0.3-0.7V3.3
		c0-0.3-0.1-0.6-0.4-0.7s-0.7-0.3-1.2-0.3h-1.5V1.3z"/>
</g>
</svg>
